<svg width="40" height="40" viewBox="0 0 40 40" fill="none" xmlns="http://www.w3.org/2000/svg">
<path d="M31.715 21.6667H36.6667L36.2233 23.3333H31.2367L31.715 21.6667ZM33.1533 16.6667H37.84L38.3333 15H33.6317L33.1533 16.6667ZM32.1933 20H39.505L40 18.3333H32.6733L32.1933 20ZM36.6667 5L35.4283 8.33333H32.2133L26.4233 28.3333H7.69167L0 10H24.6867L23.7467 13.3333H5.01333L9.91 25H23.9567L29.6767 5H36.6667ZM12.5 30C11.12 30 10 31.12 10 32.5C10 33.8817 11.12 35 12.5 35C13.88 35 15 33.8817 15 32.5C15 31.12 13.88 30 12.5 30ZM20.8333 30C19.4533 30 18.3333 31.1183 18.3333 32.5C18.3333 33.8817 19.4533 35 20.8333 35C22.2133 35 23.3333 33.8817 23.3333 32.5C23.3333 31.12 22.2133 30 20.8333 30Z" fill="#1A1A1A" style="fill:#1A1A1A;fill:color(display-p3 0.1020 0.1020 0.1020);fill-opacity:1;"/>
</svg>
