<svg width="40" height="40" viewBox="0 0 40 40" fill="none" xmlns="http://www.w3.org/2000/svg">
<path fill-rule="evenodd" clip-rule="evenodd" d="M19.9997 18.2167L29.5313 8.68333C29.7747 8.44 30.0963 8.31833 30.4163 8.31833C31.0897 8.31833 31.6663 8.85833 31.6663 9.56666C31.6663 9.88833 31.5447 10.2083 31.3013 10.4533L21.768 19.985L31.2997 29.5167C31.5447 29.7617 31.6663 30.0817 31.6663 30.4017C31.6663 31.1133 31.0847 31.6517 30.4163 31.6517C30.0963 31.6517 29.7747 31.53 29.5313 31.2867L19.9997 21.755L10.468 31.2867C10.2247 31.53 9.90301 31.6517 9.58301 31.6517C8.91467 31.6517 8.33301 31.1133 8.33301 30.4017C8.33301 30.0817 8.45467 29.7617 8.69967 29.5167L18.2313 19.985L8.69801 10.4533C8.45467 10.2083 8.33301 9.88833 8.33301 9.56666C8.33301 8.85833 8.90967 8.31833 9.58301 8.31833C9.90301 8.31833 10.2247 8.44 10.468 8.68333L19.9997 18.2167Z" fill="#880000" style="fill:#880000;fill:color(display-p3 0.5337 0.0000 0.0000);fill-opacity:1;"/>
</svg>
