<svg width="24" height="24" viewBox="0 0 24 24" fill="none" xmlns="http://www.w3.org/2000/svg">
<path d="M3.59024 1.322L6.43424 0L10.4752 7.89L7.75024 9.231C7.21224 10.49 9.90924 15.52 11.0472 15.603C11.1372 15.545 13.7182 14.275 13.7182 14.275L17.8282 22.207C17.8282 22.207 15.0642 23.561 14.9742 23.603C7.11324 27.194 -4.12676 5.345 3.59024 1.322ZM5.52024 2.596L4.49724 3.1C-0.796763 5.862 8.67424 24.285 14.1452 21.786L15.1162 21.312L12.8452 16.929L11.8192 17.429C8.65624 18.976 3.55724 9.21 6.76424 7.491L7.77124 6.994L5.52024 2.596ZM13.3522 10.245L16.2692 11.115C16.4922 10.368 16.4292 9.536 16.0292 8.798C15.6302 8.059 14.9672 7.551 14.2212 7.329L13.3522 10.245ZM15.1562 4.186C16.7072 4.648 18.0822 5.702 18.9122 7.237C19.7432 8.773 19.8722 10.5 19.4102 12.05L17.6152 11.515C17.9402 10.424 17.8482 9.209 17.2632 8.128C16.6802 7.047 15.7122 6.306 14.6202 5.982L15.1562 4.186ZM16.1062 1C18.4712 1.705 20.5692 3.312 21.8352 5.656C23.1042 7.999 23.3012 10.634 22.5962 13L20.7562 12.452C21.3202 10.557 21.1622 8.446 20.1482 6.57C19.1322 4.693 17.4522 3.405 15.5572 2.841L16.1062 1Z" fill="#1A1A1A" style="fill:#1A1A1A;fill:color(display-p3 0.1020 0.1020 0.1020);fill-opacity:1;"/>
</svg>
