<svg width="24" height="24" viewBox="0 0 24 24" fill="none" xmlns="http://www.w3.org/2000/svg">
<g clip-path="url(#clip0_4_349)">
<path fill-rule="evenodd" clip-rule="evenodd" d="M18.384 22.7791C18.706 23.0071 19.121 23.0641 19.491 22.9241C19.861 22.7831 20.133 22.4671 20.215 22.0841C21.084 18.0001 23.192 7.66315 23.983 3.94815C24.043 3.66815 23.943 3.37715 23.723 3.19015C23.503 3.00315 23.198 2.94915 22.926 3.05015C18.733 4.60215 5.82003 9.44715 0.542032 11.4001C0.207032 11.5241 -0.0109684 11.8461 3.16428e-05 12.1991C0.0120316 12.5531 0.250032 12.8601 0.593032 12.9631C2.96003 13.6711 6.06703 14.6561 6.06703 14.6561C6.06703 14.6561 7.51903 19.0411 8.27603 21.2711C8.37103 21.5511 8.59003 21.7711 8.87903 21.8471C9.16703 21.9221 9.47503 21.8431 9.69003 21.6401C10.906 20.4921 12.786 18.7171 12.786 18.7171C12.786 18.7171 16.358 21.3361 18.384 22.7791ZM7.37403 14.1021L9.05303 19.6401L9.42603 16.1331C9.42603 16.1331 15.913 10.2821 19.611 6.94715C19.719 6.84915 19.734 6.68515 19.644 6.57015C19.555 6.45515 19.391 6.42815 19.268 6.50615C14.982 9.24315 7.37403 14.1021 7.37403 14.1021Z" fill="#1A1A1A" style="fill:#1A1A1A;fill:color(display-p3 0.1020 0.1020 0.1020);fill-opacity:1;"/>
</g>
<defs>
<clipPath id="clip0_4_349">
<rect width="24" height="24" fill="white" style="fill:white;fill-opacity:1;"/>
</clipPath>
</defs>
</svg>
